<svg width="48" height="48" viewBox="0 0 48 48" fill="none" xmlns="http://www.w3.org/2000/svg">
<path d="M38.7627 12.1077C37.9523 12.1077 37.4513 12.8196 37.368 13.3005C37.2079 14.225 37.6583 14.9412 38.4906 15.8666C38.9036 16.3253 39.8568 17.1278 40.5227 17.4463C41.1886 17.1278 42.1419 16.3253 42.5549 15.8663C43.387 14.9412 43.8375 14.225 43.6774 13.3005C43.594 12.8196 43.0932 12.1077 42.2828 12.1077C41.4335 12.1077 41.0043 12.6118 40.667 13.1567L40.5226 13.3901L40.3783 13.1567C40.041 12.6118 39.612 12.1077 38.7627 12.1077Z" fill="white"/>
<path d="M21.8608 22.6482L25.7212 34.9937C25.8309 35.562 26.2409 35.8922 26.8218 35.8922C27.3373 35.8922 27.7494 35.5499 27.8972 34.999L29.8389 29.4809H32.1337L32.1429 29.605C32.3998 33.0687 34.6524 35.396 37.7482 35.396H38.1263C39.8486 35.396 41.5598 34.6211 42.7035 33.323C42.9309 33.0412 43.0481 32.7718 43.0481 32.5264C43.0481 31.7979 42.4924 31.1589 41.859 31.1589C41.6147 31.1589 41.3329 31.2789 41.044 31.5057C40.1618 32.428 39.1038 32.9019 37.9137 32.9019C36.0132 32.9019 34.6717 31.6329 34.496 29.6691L34.4829 29.523H42.5207C43.3207 29.523 43.7096 28.909 43.7096 27.6457C43.7096 23.8989 41.3745 21.6177 38.1263 21.6177C35.6293 21.6177 34.0778 22.5531 33.0493 24.6737C32.7079 25.3774 32.4563 26.1462 32.3018 26.9585L32.2811 27.0675H29.0222C28.5012 27.0675 28.0393 27.4178 27.8989 27.9198L26.8222 31.7719L22.5114 18.152C22.4457 17.9283 22.4115 17.7683 22.3561 17.6578C22.2791 17.5042 22.1413 17.4463 21.841 17.4463C21.5065 17.4463 21.3445 17.4948 21.2236 17.6578C21.1434 17.7658 21.09 17.9241 21.0365 18.152L16.9275 31.7588L16.7942 31.3139C16.6842 30.947 14.0991 22.3192 13.9221 21.6177C13.7199 20.8172 13.4693 20.0983 12.6344 20.0983H5.49722C4.83182 20.0983 4.29053 20.6396 4.29053 21.305C4.29053 21.9704 4.83182 22.5117 5.49722 22.5117H11.8309L15.8219 34.9929C15.9319 35.562 16.3419 35.8922 16.9227 35.8922C17.4977 35.8922 17.8219 35.6175 17.9738 35.0015L21.8608 22.6482ZM41.378 27.0675H34.7121C35.1762 25.2389 36.2153 24.0257 38.1263 24.0257C39.9532 24.0257 41.1568 25.2276 41.378 27.0675Z" fill="url(#paint0_linear_962_8937)"/>
<defs>
<linearGradient id="paint0_linear_962_8937" x1="4.44824" y1="36" x2="44.9482" y2="22" gradientUnits="userSpaceOnUse">
<stop stop-color="#ADB2FF"/>
<stop offset="0.6351" stop-color="white"/>
</linearGradient>
</defs>
</svg>
