<svg width="49" height="48" viewBox="0 0 49 48" fill="none" xmlns="http://www.w3.org/2000/svg">
<rect x="0.448242" width="48" height="48" rx="8" fill="url(#paint0_linear_962_8942)"/>
<path d="M39.2109 12.1077C38.4005 12.1077 37.8995 12.8196 37.8162 13.3005C37.6561 14.225 38.1066 14.9412 38.9388 15.8666C39.3518 16.3253 40.305 17.1278 40.9709 17.4463C41.6368 17.1278 42.5902 16.3253 43.0032 15.8663C43.8353 14.9412 44.2857 14.225 44.1256 13.3005C44.0422 12.8196 43.5414 12.1077 42.7311 12.1077C41.8817 12.1077 41.4525 12.6118 41.1152 13.1567L40.9709 13.3901L40.8265 13.1567C40.4893 12.6118 40.0603 12.1077 39.2109 12.1077Z" fill="white"/>
<path d="M22.3091 22.6482L26.1694 34.9937C26.2791 35.562 26.6891 35.8922 27.2701 35.8922C27.7856 35.8922 28.1976 35.5499 28.3454 34.999L30.2872 29.4809H32.5819L32.5911 29.605C32.848 33.0687 35.1006 35.396 38.1964 35.396H38.5745C40.2969 35.396 42.008 34.6211 43.1517 33.323C43.3792 33.0412 43.4964 32.7718 43.4964 32.5264C43.4964 31.7979 42.9407 31.1589 42.3072 31.1589C42.0629 31.1589 41.7811 31.2789 41.4923 31.5057C40.61 32.428 39.5521 32.9019 38.3619 32.9019C36.4614 32.9019 35.12 31.6329 34.9443 29.6691L34.9312 29.523H42.969C43.769 29.523 44.1579 28.909 44.1579 27.6457C44.1579 23.8989 41.8228 21.6177 38.5745 21.6177C36.0775 21.6177 34.5261 22.5531 33.4976 24.6737C33.1561 25.3774 32.9046 26.1462 32.7501 26.9585L32.7294 27.0675H29.4704C28.9494 27.0675 28.4875 27.4178 28.3471 27.9198L27.2705 31.7719L22.9596 18.152C22.8939 17.9283 22.8597 17.7683 22.8043 17.6578C22.7274 17.5042 22.5896 17.4463 22.2892 17.4463C21.9547 17.4463 21.7928 17.4948 21.6718 17.6578C21.5916 17.7658 21.5382 17.9241 21.4848 18.152L17.3758 31.7588L17.2425 31.3139C17.1325 30.947 14.5473 22.3192 14.3703 21.6177C14.1681 20.8172 13.9175 20.0983 13.0827 20.0983H5.94546C5.28006 20.0983 4.73877 20.6396 4.73877 21.305C4.73877 21.9704 5.28006 22.5117 5.94546 22.5117H12.2791L16.2702 34.9929C16.3801 35.562 16.7901 35.8922 17.3709 35.8922C17.946 35.8922 18.2702 35.6175 18.4221 35.0015L22.3091 22.6482ZM41.8263 27.0675H35.1604C35.6244 25.2389 36.6636 24.0257 38.5745 24.0257C40.4015 24.0257 41.6051 25.2276 41.8263 27.0675Z" fill="url(#paint1_linear_962_8942)"/>
<defs>
<linearGradient id="paint0_linear_962_8942" x1="48.8965" y1="0" x2="0.896484" y2="48" gradientUnits="userSpaceOnUse">
<stop stop-color="#7777FF"/>
<stop offset="1" stop-color="#3D1BFF"/>
</linearGradient>
<linearGradient id="paint1_linear_962_8942" x1="18.4431" y1="36.7089" x2="30.5075" y2="15.8128" gradientUnits="userSpaceOnUse">
<stop stop-color="#C6C9F8"/>
<stop offset="0.6351" stop-color="white"/>
</linearGradient>
</defs>
</svg>
