<svg width="24" height="24" viewBox="0 0 24 24" fill="none" xmlns="http://www.w3.org/2000/svg">
<g clip-path="url(#clip0_218_1776)">
<path d="M15.4287 18.462L15.3276 17.3134C15.225 16.148 16.0867 15.1201 17.2521 15.0175C18.2007 14.934 19.0882 15.4937 19.4219 16.3855L21.9495 23.1428" stroke="black" stroke-width="2" stroke-linecap="round" stroke-linejoin="round"/>
<path d="M6.06348 5.64304C6.06348 6.04643 6.14293 6.44587 6.2973 6.81855C6.45167 7.19124 6.67793 7.52987 6.96317 7.8151C7.24841 8.10034 7.58704 8.32661 7.95972 8.48098C8.3324 8.63535 8.73184 8.7148 9.13523 8.7148C9.53862 8.7148 9.93806 8.63535 10.3107 8.48098C10.6834 8.32661 11.0221 8.10034 11.3073 7.8151C11.5925 7.52987 11.8188 7.19124 11.9732 6.81855C12.1275 6.44587 12.207 6.04643 12.207 5.64304C12.207 5.23966 12.1275 4.84022 11.9732 4.46753C11.8188 4.09485 11.5925 3.75622 11.3073 3.47099C11.0221 3.18575 10.6834 2.95948 10.3107 2.80511C9.93806 2.65074 9.53862 2.57129 9.13523 2.57129C8.73184 2.57129 8.3324 2.65074 7.95972 2.80511C7.58704 2.95948 7.24841 3.18575 6.96317 3.47099C6.67793 3.75622 6.45167 4.09485 6.2973 4.46753C6.14293 4.84022 6.06348 5.23966 6.06348 5.64304Z" stroke="black" stroke-width="2" stroke-linecap="round" stroke-linejoin="round"/>
<path d="M3.42871 23.1422L8.03727 8.54834C8.53621 9.8126 10.8398 13.1284 13.7586 12.8212" stroke="black" stroke-width="2" stroke-linecap="round" stroke-linejoin="round"/>
<path d="M6.0625 14.8521L9.80127 17.5432C10.149 17.7935 10.3954 18.1601 10.496 18.5765L11.5983 23.1418" stroke="black" stroke-width="2" stroke-linecap="round" stroke-linejoin="round"/>
</g>
<defs>
<clipPath id="clip0_218_1776">
<rect width="24" height="24" fill="white"/>
</clipPath>
</defs>
</svg>
