<svg width="24" height="24" viewBox="0 0 24 24" fill="none" xmlns="http://www.w3.org/2000/svg">
<path d="M11.5855 21.7283C12.2432 22.4307 13.0354 22.9938 13.915 23.3839C14.7946 23.774 15.7437 23.9832 16.7059 23.999C17.668 24.0149 18.6235 23.8371 19.5155 23.4762C20.4075 23.1153 21.2178 22.5786 21.8982 21.8982C22.5787 21.2178 23.1153 20.4075 23.4762 19.5155C23.8371 18.6235 24.0149 17.668 23.999 16.7059C23.9832 15.7437 23.774 14.7946 23.3839 13.915C22.9938 13.0354 22.4307 12.2432 21.7283 11.5855L12.08 1.9373C10.7206 0.664629 8.91958 -0.0297138 7.05762 0.000975673C5.19566 0.0316652 3.41855 0.784984 2.10177 2.10177C0.784984 3.41855 0.0316652 5.19566 0.000975673 7.05762C-0.0297138 8.91958 0.664629 10.7206 1.9373 12.08L11.5855 21.7283ZM21.4268 16.6509C21.4253 17.592 21.1451 18.5116 20.6215 19.2936C20.098 20.0757 19.3545 20.6851 18.485 21.0451C17.6154 21.405 16.6587 21.4994 15.7356 21.3162C14.8125 21.133 13.9643 20.6804 13.2981 20.0157L9.31821 16.0479L16.0599 9.30615L20.0278 13.274C20.4734 13.7158 20.8266 14.242 21.0668 14.8218C21.307 15.4015 21.4294 16.0233 21.4268 16.6509ZM3.64987 3.6378C4.55109 2.75751 5.76091 2.2647 7.02072 2.2647C8.28053 2.2647 9.49035 2.75751 10.3916 3.6378L14.3594 7.60564L7.6177 14.3474L3.64987 10.3675C2.77318 9.46678 2.28264 8.25952 2.28264 7.00263C2.28264 5.74574 2.77318 4.53847 3.64987 3.6378Z" fill="currentColor"/>
</svg>
