<svg width="20" height="24" viewBox="0 0 20 24" fill="none" xmlns="http://www.w3.org/2000/svg">
<path d="M9.99902 1V7C9.99757 8.1522 9.59893 9.26868 8.87031 10.1613C8.14168 11.0538 7.12761 11.6679 5.99902 11.9V23C5.99902 23.2652 5.89367 23.5196 5.70613 23.7071C5.51859 23.8946 5.26424 24 4.99902 24C4.73381 24 4.47945 23.8946 4.29192 23.7071C4.10438 23.5196 3.99902 23.2652 3.99902 23V11.9C2.87044 11.6679 1.85637 11.0538 1.12774 10.1613C0.399114 9.26868 0.000477962 8.1522 -0.000976562 7V1C-0.000976562 0.734784 0.10438 0.48043 0.291917 0.292893C0.479453 0.105357 0.733807 0 0.999023 0C1.26424 0 1.51859 0.105357 1.70613 0.292893C1.89367 0.48043 1.99902 0.734784 1.99902 1V7C2.00159 7.61826 2.19511 8.22063 2.55311 8.7247C2.91111 9.22877 3.41612 9.60992 3.99902 9.816V1C3.99902 0.734784 4.10438 0.48043 4.29192 0.292893C4.47945 0.105357 4.73381 0 4.99902 0C5.26424 0 5.51859 0.105357 5.70613 0.292893C5.89367 0.48043 5.99902 0.734784 5.99902 1V9.816C6.58193 9.60992 7.08693 9.22877 7.44494 8.7247C7.80294 8.22063 7.99646 7.61826 7.99902 7V1C7.99902 0.734784 8.10438 0.48043 8.29192 0.292893C8.47945 0.105357 8.73381 0 8.99902 0C9.26424 0 9.51859 0.105357 9.70613 0.292893C9.89367 0.48043 9.99902 0.734784 9.99902 1ZM19.999 10C19.9543 11.9004 19.4815 13.7663 18.6158 15.4587C17.7501 17.1512 16.5138 18.6265 14.999 19.775V23C14.999 23.2652 14.8937 23.5196 14.7061 23.7071C14.5186 23.8946 14.2642 24 13.999 24C13.7338 24 13.4795 23.8946 13.2919 23.7071C13.1044 23.5196 12.999 23.2652 12.999 23V2C12.9901 1.62426 13.0927 1.25431 13.294 0.936929C13.4954 0.619551 13.7863 0.369011 14.13 0.217C14.5249 0.0563652 14.958 0.0142302 15.3764 0.0957442C15.7948 0.177258 16.1804 0.378891 16.486 0.676C18.8054 3.22095 20.0624 6.5573 19.999 10ZM17.999 10C18.0274 7.07215 16.9569 4.24008 14.999 2.063V17.07C16.8731 15.1882 17.9479 12.6553 17.999 10Z" fill="currentColor"/>
</svg>
