<svg width="48" height="48" viewBox="0 0 48 48" fill="none" xmlns="http://www.w3.org/2000/svg">
<rect width="48" height="48" rx="24" fill="url(#paint0_linear_1678_11237)"/>
<path d="M23.9986 13V19C23.9969 20.1522 23.5186 21.2687 22.6443 22.1613C21.7701 23.0538 20.5533 23.6679 19.1992 23.9V35C19.1992 35.2652 19.0728 35.5196 18.8477 35.7071C18.6227 35.8946 18.3175 36 17.9993 36C17.6811 36 17.3759 35.8946 17.1509 35.7071C16.9259 35.5196 16.7995 35.2652 16.7995 35V23.9C15.4453 23.6679 14.2286 23.0538 13.3543 22.1613C12.4801 21.2687 12.0017 20.1522 12 19V13C12 12.7348 12.1264 12.4804 12.3514 12.2929C12.5764 12.1054 12.8816 12 13.1999 12C13.5181 12 13.8233 12.1054 14.0483 12.2929C14.2733 12.4804 14.3997 12.7348 14.3997 13V19C14.4028 19.6183 14.635 20.2206 15.0646 20.7247C15.4941 21.2288 16.1 21.6099 16.7995 21.816V13C16.7995 12.7348 16.9259 12.4804 17.1509 12.2929C17.3759 12.1054 17.6811 12 17.9993 12C18.3175 12 18.6227 12.1054 18.8477 12.2929C19.0728 12.4804 19.1992 12.7348 19.1992 13V21.816C19.8986 21.6099 20.5045 21.2288 20.9341 20.7247C21.3636 20.2206 21.5958 19.6183 21.5989 19V13C21.5989 12.7348 21.7253 12.4804 21.9503 12.2929C22.1754 12.1054 22.4805 12 22.7988 12C23.117 12 23.4222 12.1054 23.6472 12.2929C23.8722 12.4804 23.9986 12.7348 23.9986 13ZM35.9973 22C35.9436 23.9004 35.3763 25.7663 34.3376 27.4587C33.2989 29.1512 31.8155 30.6265 29.9979 31.775V35C29.9979 35.2652 29.8715 35.5196 29.6465 35.7071C29.4215 35.8946 29.1163 36 28.7981 36C28.4799 36 28.1747 35.8946 27.9496 35.7071C27.7246 35.5196 27.5982 35.2652 27.5982 35V14C27.5875 13.6243 27.7106 13.2543 27.9522 12.9369C28.1938 12.6196 28.5428 12.369 28.9553 12.217C29.429 12.0564 29.9487 12.0142 30.4507 12.0957C30.9527 12.1773 31.4154 12.3789 31.7821 12.676C34.5651 15.221 36.0733 18.5573 35.9973 22ZM33.5975 22C33.6316 19.0722 32.3472 16.2401 29.9979 14.063V29.07C32.2466 27.1882 33.5362 24.6553 33.5975 22Z" fill="white"/>
<defs>
<linearGradient id="paint0_linear_1678_11237" x1="24" y1="0" x2="24" y2="48" gradientUnits="userSpaceOnUse">
<stop stop-color="#FFEFBB"/>
<stop offset="1" stop-color="#FFC60B"/>
</linearGradient>
</defs>
</svg>
