<svg width="48" height="48" viewBox="0 0 48 48" fill="none" xmlns="http://www.w3.org/2000/svg">
<rect width="48" height="48" rx="24" fill="url(#paint0_linear_1678_11239)"/>
<g clip-path="url(#clip0_1678_11239)">
<path d="M20.2783 11C20.8034 11 21.3234 11.1038 21.8086 11.3047C22.2939 11.5057 22.735 11.8005 23.1064 12.1719C23.4778 12.5433 23.7726 12.9845 23.9736 13.4697C24.1746 13.9549 24.2783 14.4748 24.2783 15C24.2783 15.5252 24.1746 16.0451 23.9736 16.5303C23.7726 17.0155 23.4778 17.4567 23.1064 17.8281C22.735 18.1995 22.2939 18.4943 21.8086 18.6953C21.5011 18.8227 21.1794 18.9104 20.8516 18.958C21.226 19.6846 21.7655 20.6129 22.4385 21.4502C23.5199 22.7957 24.7066 23.6182 25.9053 23.5049C26.455 23.4528 26.9428 23.8557 26.9951 24.4053C27.0044 24.5031 26.9983 24.5987 26.9805 24.6904C27.3964 24.4832 27.858 24.3517 28.3398 24.3135C29.8433 24.1944 31.3363 24.9878 31.9189 26.3896L34.9209 33.6162C35.1327 34.1261 34.8917 34.7119 34.3818 34.9238C33.8718 35.1356 33.2861 34.8938 33.0742 34.3838L30.0723 27.1572C29.8622 26.6519 29.2475 26.2484 28.498 26.3076C27.5695 26.3812 27.07 27.0762 27.1279 27.6689L27.248 28.8975C27.3016 29.4469 26.8999 29.9354 26.3506 29.9893C25.801 30.0429 25.3116 29.6414 25.2578 29.0918L25.1377 27.8633C25.0485 26.9512 25.3597 26.1309 25.9102 25.5078C23.7303 25.6242 22.0148 24.1152 20.8799 22.7031C20.4058 22.1132 19.9941 21.4916 19.6494 20.9121L18.3154 24.7129L22.1123 27.1738C22.7176 27.5661 23.1713 28.1581 23.3594 28.8594L24.6689 33.7412C24.812 34.2746 24.4953 34.8238 23.9619 34.9668C23.4288 35.1094 22.8804 34.7928 22.7373 34.2598L21.4277 29.377C21.3769 29.1876 21.245 28.9955 21.0244 28.8525L17.6348 26.6553L14.9434 34.332C14.7606 34.8532 14.1901 35.1281 13.6689 34.9453C13.1479 34.7625 12.8739 34.191 13.0566 33.6699L18.3711 18.5146C18.0334 18.3314 17.7229 18.1008 17.4502 17.8281C17.0788 17.4567 16.784 17.0156 16.583 16.5303C16.3821 16.0451 16.2783 15.5252 16.2783 15C16.2783 14.4748 16.3821 13.9549 16.583 13.4697C16.784 12.9844 17.0788 12.5433 17.4502 12.1719C17.8216 11.8005 18.2628 11.5057 18.748 11.3047C19.2332 11.1038 19.7532 11 20.2783 11ZM20.2783 13C20.0157 13 19.7553 13.0519 19.5127 13.1523C19.2702 13.2528 19.0499 13.4003 18.8643 13.5859C18.6786 13.7716 18.5312 13.9918 18.4307 14.2344C18.3302 14.477 18.2783 14.7374 18.2783 15C18.2783 15.2626 18.3302 15.523 18.4307 15.7656C18.5312 16.0082 18.6786 16.2284 18.8643 16.4141C19.0499 16.5997 19.2702 16.7472 19.5127 16.8477C19.7553 16.9481 20.0157 17 20.2783 17C20.5409 17 20.8013 16.9481 21.0439 16.8477C21.2865 16.7472 21.5068 16.5997 21.6924 16.4141C21.878 16.2284 22.0255 16.0081 22.126 15.7656C22.2265 15.523 22.2783 15.2626 22.2783 15C22.2783 14.7374 22.2265 14.477 22.126 14.2344C22.0255 13.9919 21.878 13.7716 21.6924 13.5859C21.5068 13.4003 21.2865 13.2528 21.0439 13.1523C20.8013 13.0519 20.5409 13 20.2783 13Z" fill="white"/>
</g>
<defs>
<linearGradient id="paint0_linear_1678_11239" x1="24" y1="0" x2="24" y2="48" gradientUnits="userSpaceOnUse">
<stop stop-color="#B1DEFF"/>
<stop offset="1" stop-color="#0095FF"/>
</linearGradient>
<clipPath id="clip0_1678_11239">
<rect width="24" height="24" fill="white" transform="translate(12 11)"/>
</clipPath>
</defs>
</svg>
