<svg width="48" height="48" viewBox="0 0 48 48" fill="none" xmlns="http://www.w3.org/2000/svg">
<rect width="48" height="48" rx="24" fill="url(#paint0_linear_1678_11233)"/>
<path d="M23.5855 33.7283C24.2432 34.4307 25.0354 34.9938 25.915 35.3839C26.7946 35.774 27.7437 35.9832 28.7059 35.999C29.668 36.0149 30.6235 35.8371 31.5155 35.4762C32.4075 35.1153 33.2178 34.5786 33.8982 33.8982C34.5787 33.2178 35.1153 32.4075 35.4762 31.5155C35.8371 30.6235 36.0149 29.668 35.999 28.7059C35.9832 27.7437 35.774 26.7946 35.3839 25.915C34.9938 25.0354 34.4307 24.2432 33.7283 23.5855L24.08 13.9373C22.7206 12.6646 20.9196 11.9703 19.0576 12.001C17.1957 12.0317 15.4186 12.785 14.1018 14.1018C12.785 15.4186 12.0317 17.1957 12.001 19.0576C11.9703 20.9196 12.6646 22.7206 13.9373 24.08L23.5855 33.7283ZM33.4268 28.6509C33.4253 29.592 33.1451 30.5116 32.6215 31.2936C32.098 32.0757 31.3545 32.6851 30.485 33.0451C29.6154 33.405 28.6587 33.4994 27.7356 33.3162C26.8125 33.133 25.9643 32.6804 25.2981 32.0157L21.3182 28.0479L28.0599 21.3061L32.0278 25.274C32.4734 25.7158 32.8266 26.242 33.0668 26.8218C33.307 27.4015 33.4294 28.0233 33.4268 28.6509ZM15.6499 15.6378C16.5511 14.7575 17.7609 14.2647 19.0207 14.2647C20.2805 14.2647 21.4904 14.7575 22.3916 15.6378L26.3594 19.6056L19.6177 26.3474L15.6499 22.3675C14.7732 21.4668 14.2826 20.2595 14.2826 19.0026C14.2826 17.7457 14.7732 16.5385 15.6499 15.6378Z" fill="white"/>
<defs>
<linearGradient id="paint0_linear_1678_11233" x1="24" y1="0" x2="24" y2="48" gradientUnits="userSpaceOnUse">
<stop stop-color="#BAF1A0"/>
<stop offset="1" stop-color="#70C04B"/>
</linearGradient>
</defs>
</svg>
