<svg width="48" height="48" viewBox="0 0 48 48" fill="none" xmlns="http://www.w3.org/2000/svg">
<rect width="48" height="48" rx="24" fill="url(#paint0_linear_1678_26005)"/>
<g clip-path="url(#clip0_1678_26005)">
<path d="M30.6562 12.9303L18.4642 25.1223C17.9985 25.5855 17.6294 26.1364 17.3781 26.7432C17.1268 27.3499 16.9983 28.0006 17.0002 28.6573V30.0003C17.0002 30.2655 17.1056 30.5199 17.2931 30.7074C17.4806 30.895 17.735 31.0003 18.0002 31.0003H19.3432C20 31.0022 20.6506 30.8737 21.2574 30.6224C21.8641 30.3711 22.4151 30.002 22.8782 29.5363L35.0702 17.3443C35.6546 16.7585 35.9828 15.9648 35.9828 15.1373C35.9828 14.3098 35.6546 13.5161 35.0702 12.9303C34.4759 12.3622 33.6854 12.0452 32.8632 12.0452C32.041 12.0452 31.2505 12.3622 30.6562 12.9303V12.9303ZM33.6562 15.9303L21.4642 28.1223C20.9003 28.6827 20.1382 28.9982 19.3432 29.0003H19.0002V28.6573C19.0023 27.8623 19.3178 27.1002 19.8782 26.5363L32.0702 14.3443C32.2838 14.1403 32.5678 14.0264 32.8632 14.0264C33.1586 14.0264 33.4426 14.1403 33.6562 14.3443C33.8661 14.5548 33.984 14.84 33.984 15.1373C33.984 15.4346 33.8661 15.7198 33.6562 15.9303V15.9303Z" fill="white"/>
<path d="M35 20.979C34.7348 20.979 34.4804 21.0844 34.2929 21.2719C34.1054 21.4594 34 21.7138 34 21.979V27H30C29.2044 27 28.4413 27.3161 27.8787 27.8787C27.3161 28.4413 27 29.2044 27 30V34H17C16.2044 34 15.4413 33.6839 14.8787 33.1213C14.3161 32.5587 14 31.7957 14 31V17C14 16.2044 14.3161 15.4413 14.8787 14.8787C15.4413 14.3161 16.2044 14 17 14H26.042C26.3072 14 26.5616 13.8946 26.7491 13.7071C26.9366 13.5196 27.042 13.2652 27.042 13C27.042 12.7348 26.9366 12.4804 26.7491 12.2929C26.5616 12.1054 26.3072 12 26.042 12H17C15.6744 12.0016 14.4036 12.5289 13.4662 13.4662C12.5289 14.4036 12.0016 15.6744 12 17L12 31C12.0016 32.3256 12.5289 33.5964 13.4662 34.5338C14.4036 35.4711 15.6744 35.9984 17 36H28.343C28.9999 36.0019 29.6507 35.8735 30.2576 35.6222C30.8646 35.3709 31.4157 35.0017 31.879 34.536L34.535 31.878C35.0008 31.4149 35.37 30.864 35.6215 30.2572C35.873 29.6504 36.0016 28.9998 36 28.343V21.979C36 21.7138 35.8946 21.4594 35.7071 21.2719C35.5196 21.0844 35.2652 20.979 35 20.979ZM30.465 33.122C30.063 33.523 29.5547 33.8006 29 33.922V30C29 29.7348 29.1054 29.4804 29.2929 29.2929C29.4804 29.1054 29.7348 29 30 29H33.925C33.8013 29.5535 33.524 30.0609 33.125 30.464L30.465 33.122Z" fill="white"/>
</g>
<defs>
<linearGradient id="paint0_linear_1678_26005" x1="24" y1="0" x2="24" y2="48" gradientUnits="userSpaceOnUse">
<stop stop-color="#DCE1FF"/>
<stop offset="1" stop-color="#9886FF"/>
</linearGradient>
<clipPath id="clip0_1678_26005">
<rect width="24" height="24" fill="white" transform="translate(12 12)"/>
</clipPath>
</defs>
</svg>
